<svg width="21" height="21" viewBox="0 0 21 21" fill="none" xmlns="http://www.w3.org/2000/svg">
    <path fill-rule="evenodd" clip-rule="evenodd"
          d="M0 2C0 0.895 0.895 0 2 0H16C17.105 0 18 0.895 18 2V3V8.68164C17.378 8.38564 16.707 8.17912 16 8.07812V4H2V16H8.08008C8.18108 16.707 8.38759 17.378 8.68359 18H2C0.897 18 0 17.103 0 16V4V2ZM5.77344 6.125V5H6.56836V6.14648C6.82036 6.19548 7.05081 6.28406 7.25781 6.41406C7.46481 6.54706 7.6392 6.71583 7.7832 6.92383C7.9272 7.12983 8.03819 7.37234 8.11719 7.65234C8.19619 7.93034 8.23438 8.24094 8.23438 8.58594H6.74609C6.74609 8.16594 6.68741 7.85253 6.56641 7.64453C6.44541 7.43853 6.2887 7.33594 6.0957 7.33594C5.9907 7.33594 5.90017 7.3583 5.82617 7.4043C5.75217 7.4533 5.69158 7.51761 5.64258 7.59961C5.59358 7.68161 5.55816 7.77967 5.53516 7.88867C5.51316 8.00067 5.50195 8.12 5.50195 8.25C5.50195 8.378 5.51497 8.49661 5.54297 8.59961C5.57097 8.70261 5.61573 8.79872 5.67773 8.88672C5.73973 8.97672 5.81992 9.06067 5.91992 9.13867C6.01892 9.21867 6.1392 9.30077 6.2832 9.38477C6.5712 9.52177 6.83427 9.66164 7.07227 9.80664C7.31027 9.94964 7.5155 10.1157 7.6875 10.3027C7.8595 10.4897 7.99194 10.708 8.08594 10.957C8.17894 11.207 8.22461 11.5008 8.22461 11.8398C8.22461 12.1438 8.18361 12.42 8.09961 12.666C8.01461 12.91 7.89423 13.1218 7.74023 13.3008C7.58623 13.4798 7.40064 13.6254 7.18164 13.7344C6.96264 13.8464 6.72013 13.9191 6.45312 13.9531V15H5.66406V13.9531C5.41806 13.9201 5.18113 13.8492 4.95312 13.7422C4.72612 13.6352 4.52466 13.4832 4.34766 13.2832C4.17066 13.0852 4.02883 12.8381 3.92383 12.5371C3.81883 12.2381 3.76562 11.8819 3.76562 11.4629H5.25586C5.25586 11.7129 5.27631 11.918 5.32031 12.082C5.36431 12.248 5.42209 12.3775 5.49609 12.4785C5.57009 12.5775 5.65595 12.6495 5.75195 12.6895C5.84795 12.7295 5.94969 12.75 6.05469 12.75C6.16969 12.75 6.26947 12.7276 6.35547 12.6816C6.44147 12.6376 6.51236 12.5741 6.56836 12.4941C6.62436 12.4161 6.66731 12.3219 6.69531 12.2109C6.72331 12.1009 6.73633 11.9796 6.73633 11.8496C6.73633 11.7066 6.72331 11.5778 6.69531 11.4668C6.66731 11.3528 6.62159 11.2521 6.55859 11.1641C6.49559 11.0741 6.41436 10.9921 6.31836 10.9141C6.22136 10.8381 6.10575 10.7635 5.96875 10.6895C5.67775 10.5595 5.41187 10.4222 5.17188 10.2812C4.93087 10.1383 4.72669 9.97411 4.55469 9.78711C4.38269 9.60011 4.2493 9.38077 4.1543 9.13477C4.0593 8.88677 4.01172 8.58919 4.01172 8.24219C4.01172 7.94719 4.05467 7.67955 4.13867 7.43555C4.22367 7.19355 4.34209 6.97983 4.49609 6.79883C4.65009 6.61583 4.83478 6.46561 5.05078 6.34961C5.26678 6.23361 5.50644 6.159 5.77344 6.125ZM15 10C12.2 10 10 12.2 10 15C10 17.8 12.2 20 15 20C16 20 17.0008 19.6992 17.8008 19.1992L19.5996 21L21 19.5996L19.1992 17.8008C19.6992 17.0008 20 16 20 15C20 12.2 17.8 10 15 10ZM18 15C18 13.3 16.7 12 15 12C13.3 12 12 13.3 12 15C12 16.7 13.3 18 15 18C16.7 18 18 16.7 18 15Z"
          fill="white"/>
</svg>
